# xmcd
#
# Track frame offsets:
#	150
#	15915
#	22468
#	31954
#	38384
#	55850
#	63533
#	70144
#	80044
#	92093
#	96809
#	104736
#	112932
#	121413
#	139659
#	155948
#	161503
#	165311
#	173712
#	185398
#	194454
#	207971
#	218837
#
# Disc length: 3223 seconds
#
# Revision: 0
# Processed by: cddbd v1.5.1PL2 Copyright (c) Steve Scherf et al.
# Submitted via: dBpowerAMP V4.0
#
DISCID=3d0c9517
DTITLE=G Stars - G Stars
DYEAR=2006
DGENRE=Blues
TTITLE0=T1
TTITLE1=T2
TTITLE2=T3
TTITLE3=T4
TTITLE4=T5
TTITLE5=T6
TTITLE6=T7
TTITLE7=T8
TTITLE8=T9
TTITLE9=T10
TTITLE10=T11
TTITLE11=T12
TTITLE12=T13
TTITLE13=T14
TTITLE14=T15
TTITLE15=T16
TTITLE16=T17
TTITLE17=T18
TTITLE18=T19
TTITLE19=T20
TTITLE20=T21
TTITLE21=T22
TTITLE22=T23
EXTD=Try try try...
EXTT0=
EXTT1=
EXTT2=
EXTT3=
EXTT4=
EXTT5=
EXTT6=
EXTT7=
EXTT8=
EXTT9=
EXTT10=
EXTT11=
EXTT12=
EXTT13=
EXTT14=
EXTT15=
EXTT16=
EXTT17=
EXTT18=
EXTT19=
EXTT20=
EXTT21=
EXTT22=
PLAYORDER=
